# xmcd
#
# Track frame offsets:
#	150
#	19186
#	39922
#	56680
#	69751
#	84534
#	98585
#	113914
#	130476
#	152221
#	165897
#	188327
#	211784
#	229808
#	243403
#	264198
#	285717
#	302045
#	318868
#
# Disc length: 4476 seconds
# Revision: 0
# Processed by: cddbd v1.5.2PL0 Copyright (c) Steve Scherf et al.
# Submitted via: dBpowerAMP V12.0
#
DISCID=eb117a13
DTITLE=中國民歌 - 西域情歌
DYEAR=2006
DGENRE=中國民歌
TTITLE0=2002年的第一場雪
TTITLE1=阿瓦古麗
TTITLE2=在那遙遠的地方
TTITLE3=打起手鼓唱起歌
TTITLE4=青春舞曲
TTITLE5=康定情歌
TTITLE6=蒙古人
TTITLE7=草原迎賓曲
TTITLE8=家鄉
TTITLE9=瑪依拉
TTITLE10=大板城的姑娘
TTITLE11=半個月亮爬上來
TTITLE12=花兒為什麼這樣紅
TTITLE13=美麗的草原我的家
TTITLE14=草原夜色美
TTITLE15=衝動的懲罰
TTITLE16=掀起你的蓋頭來
TTITLE17=在那銀色的月光下
TTITLE18=可愛的一朵玫瑰花
EXTD=
EXTT0=
EXTT1=
EXTT2=
EXTT3=
EXTT4=
EXTT5=
EXTT6=
EXTT7=
EXTT8=
EXTT9=
EXTT10=
EXTT11=
EXTT12=
EXTT13=
EXTT14=
EXTT15=
EXTT16=
EXTT17=
EXTT18=
PLAYORDER=
